<svg width="14" height="14" viewBox="0 0 14 14" fill="none" xmlns="http://www.w3.org/2000/svg">
<path d="M5.5 13.5V9.99466C5.5 9.75 5.75 9.5 6 9.5H8C8.25 9.5 8.5 9.75 8.5 10V13.5C8.5 13.7761 8.72386 14 9 14H13C13.2761 14 13.5 13.7761 13.5 13.5V6.5C13.5 6.36739 13.4473 6.24021 13.3536 6.14645L12 4.79289V1.5C12 1.22386 11.7761 1 11.5 1H10.5C10.2239 1 10 1.22386 10 1.5V2.79289L7.35355 0.146447C7.15829 -0.0488155 6.84171 -0.0488155 6.64645 0.146447L0.646447 6.14645C0.552678 6.24021 0.5 6.36739 0.5 6.5V13.5C0.5 13.7761 0.723858 14 1 14H5C5.27614 14 5.5 13.7761 5.5 13.5Z" fill="#1D1D1D"/>
</svg>
